<?xml version="1.0" encoding="UTF-8" standalone="no"?><!-- Generator: Gravit.io --><svg xmlns="http://www.w3.org/2000/svg" xmlns:xlink="http://www.w3.org/1999/xlink" style="isolation:isolate" viewBox="0 0 300 70" width="300pt" height="70pt"><defs><clipPath id="_clipPath_eyvo004YjUJUduDPFSop9g0spJITRVkd"><rect width="300" height="70"/></clipPath></defs><g clip-path="url(#_clipPath_eyvo004YjUJUduDPFSop9g0spJITRVkd)"><clipPath id="_clipPath_Wn7fMOX9F1UZMRqzgiVtmesyCbJXGQtM"><rect x="0" y="0" width="300" height="70" transform="matrix(1,0,0,1,0,0)" fill="rgb(255,255,255)"/></clipPath><g clip-path="url(#_clipPath_Wn7fMOX9F1UZMRqzgiVtmesyCbJXGQtM)"><g><path d=" M 127.426 41.32 L 127.426 29.576 L 127.426 29.576 Q 127.426 27.77 127.742 23.975 L 127.742 23.975 L 127.833 22.891 L 127.381 22.846 L 127.381 22.846 Q 126.342 26.686 125.574 28.944 L 125.574 28.944 L 119.567 46.605 L 113.559 46.605 L 107.236 28.944 L 107.236 28.944 Q 106.377 26.911 105.7 23.885 L 105.7 23.885 L 105.429 22.846 L 104.977 22.891 L 104.977 22.891 Q 105.384 26.911 105.384 29.576 L 105.384 29.576 L 105.384 41.456 L 105.384 41.456 Q 107.055 42.088 107.868 43.127 L 107.868 43.127 L 107.416 46.605 L 98.563 46.605 L 98.112 43.127 L 98.112 43.127 Q 98.925 42.088 100.596 41.456 L 100.596 41.456 L 100.596 20.588 L 100.596 20.588 Q 98.744 19.91 98.021 18.917 L 98.021 18.917 L 98.473 15.439 L 108.771 15.439 L 115.366 33.642 L 115.366 33.642 Q 116.631 36.623 116.992 39.107 L 116.992 39.107 L 117.128 39.875 L 117.76 39.875 L 117.76 39.875 Q 117.941 37.12 119.386 33.642 L 119.386 33.642 L 125.664 15.439 L 135.782 15.439 L 136.234 18.917 L 136.234 18.917 Q 135.511 19.91 133.659 20.588 L 133.659 20.588 L 133.659 41.275 L 133.659 41.275 Q 135.421 41.953 136.144 42.856 L 136.144 42.856 L 135.692 46.605 L 125.393 46.605 L 124.942 42.901 L 124.942 42.901 Q 125.664 41.998 127.426 41.32 L 127.426 41.32 L 127.426 41.32 Z  M 139.712 27.363 L 139.712 27.363 L 139.712 27.363 Q 139.712 26.686 139.757 25.918 L 139.757 25.918 L 139.757 25.918 Q 143.958 23.659 148.791 23.659 L 148.791 23.659 L 148.791 23.659 Q 153.624 23.659 155.724 25.489 L 155.724 25.489 L 155.724 25.489 Q 157.824 27.318 157.824 31.564 L 157.824 31.564 L 157.824 41.185 L 157.824 41.185 Q 159.405 41.501 160.309 41.953 L 160.309 41.953 L 160.309 45.882 L 160.309 45.882 Q 158.005 46.966 153.714 46.966 L 153.714 46.966 L 153.714 46.966 Q 153.262 45.792 152.946 44.121 L 152.946 44.121 L 152.946 44.121 Q 151.004 46.966 145.9 46.966 L 145.9 46.966 L 145.9 46.966 Q 142.874 46.966 140.728 45.205 L 140.728 45.205 L 140.728 45.205 Q 138.583 43.443 138.583 40.417 L 138.583 40.417 L 138.583 40.417 Q 138.583 37.391 140.593 35.652 L 140.593 35.652 L 140.593 35.652 Q 142.603 33.913 146.577 33.913 L 146.577 33.913 L 151.501 33.913 L 151.501 31.744 L 151.501 31.744 Q 151.501 28.221 147.752 28.221 L 147.752 28.221 L 147.752 28.221 Q 146.352 28.221 145.448 28.492 L 145.448 28.492 L 145.448 28.492 Q 145.358 30.389 144.906 31.428 L 144.906 31.428 L 140.48 31.428 L 140.48 31.428 Q 139.712 29.847 139.712 27.363 Z  M 147.842 42.359 L 147.842 42.359 L 147.842 42.359 Q 150.146 42.359 151.501 41.004 L 151.501 41.004 L 151.501 37.3 L 148.339 37.3 L 148.339 37.3 Q 145.087 37.3 145.087 39.784 L 145.087 39.784 L 145.087 39.784 Q 145.087 40.914 145.787 41.636 L 145.787 41.636 L 145.787 41.636 Q 146.487 42.359 147.842 42.359 Z  M 175.485 29.576 L 175.485 29.576 L 175.485 29.576 Q 172.053 29.576 170.743 30.886 L 170.743 30.886 L 170.743 41.23 L 170.743 41.23 Q 174.401 41.907 175.756 43.127 L 175.756 43.127 L 175.305 46.605 L 162.386 46.605 L 161.935 43.127 L 161.935 43.127 Q 162.567 42.269 164.419 41.591 L 164.419 41.591 L 164.419 29.034 L 164.419 29.034 Q 162.838 28.492 161.935 27.499 L 161.935 27.499 L 162.386 24.021 L 162.386 24.021 Q 164.871 23.479 166.858 23.479 L 166.858 23.479 L 166.858 23.479 Q 168.846 23.479 170.155 23.569 L 170.155 23.569 L 170.155 26.415 L 170.155 26.415 Q 171.194 25.195 172.82 24.405 L 172.82 24.405 L 172.82 24.405 Q 174.446 23.614 175.779 23.614 L 175.779 23.614 L 175.779 23.614 Q 177.111 23.614 177.608 23.84 L 177.608 23.84 L 177.473 29.712 L 177.473 29.712 Q 176.569 29.576 175.485 29.576 Z  M 178.918 18.013 L 179.37 14.535 L 179.37 14.535 Q 181.899 13.948 184.067 13.948 L 184.067 13.948 L 184.067 13.948 Q 186.236 13.948 187.726 14.084 L 187.726 14.084 L 187.726 41.591 L 187.726 41.591 Q 189.488 42.269 190.21 43.127 L 190.21 43.127 L 189.759 46.605 L 179.37 46.605 L 178.918 43.127 L 178.918 43.127 Q 179.551 42.269 181.402 41.591 L 181.402 41.591 L 181.402 19.549 L 181.402 19.549 Q 179.822 19.007 178.918 18.013 L 178.918 18.013 L 178.918 18.013 Z  M 202.903 46.966 L 202.903 46.966 L 202.903 46.966 Q 197.482 46.966 194.75 44.075 L 194.75 44.075 L 194.75 44.075 Q 192.017 41.185 192.017 35.674 L 192.017 35.674 L 192.017 35.674 Q 192.017 32.332 192.966 29.915 L 192.966 29.915 L 192.966 29.915 Q 193.914 27.499 195.54 26.189 L 195.54 26.189 L 195.54 26.189 Q 198.702 23.659 202.903 23.659 L 202.903 23.659 L 202.903 23.659 Q 207.103 23.659 209.339 25.805 L 209.339 25.805 L 209.339 25.805 Q 211.575 27.95 211.575 33.506 L 211.575 33.506 L 211.575 33.506 Q 211.575 36.758 208.368 36.758 L 208.368 36.758 L 198.567 36.758 L 198.567 36.758 Q 198.747 39.604 200.035 40.778 L 200.035 40.778 L 200.035 40.778 Q 201.322 41.953 204.122 41.953 L 204.122 41.953 L 204.122 41.953 Q 205.658 41.953 207.058 41.591 L 207.058 41.591 L 207.058 41.591 Q 208.458 41.23 209.091 40.869 L 209.091 40.869 L 209.723 40.507 L 211.078 44.121 L 211.078 44.121 Q 210.807 44.437 210.288 44.911 L 210.288 44.911 L 210.288 44.911 Q 209.768 45.385 207.668 46.176 L 207.668 46.176 L 207.668 46.176 Q 205.568 46.966 202.903 46.966 Z  M 198.612 33.009 L 205.748 32.738 L 205.748 32.738 Q 205.839 32.106 205.839 31.202 L 205.839 31.202 L 205.839 31.202 Q 205.839 30.299 205.116 29.283 L 205.116 29.283 L 205.116 29.283 Q 204.393 28.266 202.609 28.266 L 202.609 28.266 L 202.609 28.266 Q 200.825 28.266 199.876 29.351 L 199.876 29.351 L 199.876 29.351 Q 198.928 30.435 198.612 33.009 L 198.612 33.009 L 198.612 33.009 Z  M 213.879 27.499 L 214.33 24.021 L 214.33 24.021 Q 216.815 23.479 218.802 23.479 L 218.802 23.479 L 218.802 23.479 Q 220.789 23.479 222.099 23.569 L 222.099 23.569 L 222.099 25.827 L 222.099 25.827 Q 223.229 24.879 225.103 24.269 L 225.103 24.269 L 225.103 24.269 Q 226.978 23.659 228.694 23.659 L 228.694 23.659 L 228.694 23.659 Q 233.121 23.659 234.905 25.737 L 234.905 25.737 L 234.905 25.737 Q 236.689 27.815 236.689 32.919 L 236.689 32.919 L 236.689 41.591 L 236.689 41.591 Q 238.45 42.269 239.173 43.127 L 239.173 43.127 L 238.721 46.605 L 228.333 46.605 L 227.881 43.127 L 227.881 43.127 Q 228.513 42.269 230.365 41.591 L 230.365 41.591 L 230.365 32.648 L 230.365 32.648 Q 230.365 30.209 229.575 29.373 L 229.575 29.373 L 229.575 29.373 Q 228.784 28.537 226.752 28.537 L 226.752 28.537 L 226.752 28.537 Q 224.719 28.537 222.687 29.983 L 222.687 29.983 L 222.687 41.591 L 222.687 41.591 Q 224.448 42.269 225.171 43.127 L 225.171 43.127 L 224.719 46.605 L 214.33 46.605 L 213.879 43.127 L 213.879 43.127 Q 214.511 42.269 216.363 41.591 L 216.363 41.591 L 216.363 29.034 L 216.363 29.034 Q 214.782 28.492 213.879 27.499 L 213.879 27.499 L 213.879 27.499 Z  M 245.181 51.844 L 245.813 51.844 L 245.813 51.844 Q 246.626 51.844 247.552 50.331 L 247.552 50.331 L 247.552 50.331 Q 248.478 48.818 248.839 46.74 L 248.839 46.74 L 241.432 29.215 L 241.432 29.215 Q 239.218 28.492 238.45 27.499 L 238.45 27.499 L 238.902 24.021 L 249.291 24.021 L 249.743 27.499 L 249.743 27.499 Q 249.155 28.221 247.755 28.809 L 247.755 28.809 L 250.239 35.629 L 250.239 35.629 Q 251.052 37.752 251.369 39.83 L 251.369 39.83 L 251.504 40.462 L 252.136 40.462 L 252.136 40.462 Q 252.498 38.204 253.401 35.719 L 253.401 35.719 L 255.795 29.034 L 255.795 29.034 Q 254.124 28.402 253.446 27.499 L 253.446 27.499 L 253.898 24.021 L 263.835 24.021 L 264.287 27.499 L 264.287 27.499 Q 263.474 28.537 261.306 29.26 L 261.306 29.26 L 253.853 46.876 L 253.853 46.876 Q 251.73 51.89 250.601 53.335 L 250.601 53.335 L 250.601 53.335 Q 248.613 56 245.068 56 L 245.068 56 L 245.068 56 Q 241.522 56 239.67 54.148 L 239.67 54.148 L 239.67 54.148 Q 239.625 53.696 239.625 53.245 L 239.625 53.245 L 239.625 53.245 Q 239.625 50.76 240.664 48.547 L 240.664 48.547 L 244.413 48.547 L 244.413 48.547 Q 245.09 49.767 245.181 51.844 L 245.181 51.844 L 245.181 51.844 Z  M 269.323 8.708 L 269.323 8.708 L 269.323 8.708 Q 270.656 8.708 271.582 9.431 L 271.582 9.431 L 271.582 9.431 Q 272.508 10.154 272.508 11.283 L 272.508 11.283 L 272.508 11.283 Q 272.508 14.264 267.81 20.452 L 267.81 20.452 L 265.506 19.594 L 265.506 19.594 Q 265.597 12.683 267.268 9.883 L 267.268 9.883 L 267.268 9.883 Q 267.991 8.708 269.323 8.708 Z  M 281.677 27.724 L 281.677 27.724 L 281.677 27.724 Q 278.696 27.724 278.696 29.486 L 278.696 29.486 L 278.696 29.486 Q 278.696 31.157 281.812 31.97 L 281.812 31.97 L 285.381 32.919 L 285.381 32.919 Q 290.891 34.364 290.891 39.288 L 290.891 39.288 L 290.891 39.288 Q 290.891 42.675 288.52 44.821 L 288.52 44.821 L 288.52 44.821 Q 286.148 46.966 280.977 46.966 L 280.977 46.966 L 280.977 46.966 Q 275.805 46.966 272.914 45.521 L 272.914 45.521 L 272.914 45.521 Q 272.869 45.024 272.869 44.527 L 272.869 44.527 L 272.869 44.527 Q 272.869 42.043 273.863 40.055 L 273.863 40.055 L 277.612 40.055 L 277.612 40.055 Q 278.199 41.14 278.379 42.314 L 278.379 42.314 L 278.379 42.314 Q 279.283 42.585 280.954 42.585 L 280.954 42.585 L 280.954 42.585 Q 284.929 42.585 284.929 40.326 L 284.929 40.326 L 284.929 40.326 Q 284.929 39.604 284.387 39.13 L 284.387 39.13 L 284.387 39.13 Q 283.845 38.655 282.264 38.204 L 282.264 38.204 L 278.696 37.165 L 278.696 37.165 Q 275.94 36.397 274.405 34.884 L 274.405 34.884 L 274.405 34.884 Q 272.869 33.371 272.869 30.412 L 272.869 30.412 L 272.869 30.412 Q 272.869 27.453 275.263 25.556 L 275.263 25.556 L 275.263 25.556 Q 277.657 23.659 282.106 23.659 L 282.106 23.659 L 282.106 23.659 Q 286.555 23.659 289.626 24.969 L 289.626 24.969 L 289.626 24.969 Q 289.672 25.421 289.672 25.873 L 289.672 25.873 L 289.672 25.873 Q 289.672 28.221 288.678 30.209 L 288.678 30.209 L 284.974 30.209 L 284.974 30.209 Q 284.387 29.17 284.206 28.041 L 284.206 28.041 L 284.206 28.041 Q 282.941 27.724 281.677 27.724 Z " fill="rgb(255,255,255)"/><g><path d=" M 33.65 48.58 C 47.403 48.58 50.816 46.877 55.981 44.298 C 56.926 43.827 57.935 43.322 59.091 42.792 C 61.143 41.85 63.99 40.097 70.869 39.989 L 73.322 39.95 L 86.649 40.03 L 86.659 40.03 C 87.435 40.031 88.114 39.508 88.313 38.758 C 88.373 38.529 89.797 34.788 90.021 28.178 C 90.17 23.844 90.066 18.922 88.176 15.3 C 87.882 14.735 87.297 14.38 86.659 14.381 C 84.883 14.381 82.819 15.289 80.204 16.436 C 76.925 17.877 73.207 19.51 69.56 19.51 C 63.983 19.51 61.153 14.646 59.51 10.988 C 59.23 10.364 59.101 10.078 58.847 9.803 C 58.176 9.078 57.437 8.708 56.646 8.708 C 55.683 8.708 54.967 9.263 54.556 9.849 C 52.945 11.27 41.24 21.501 34.594 24.822 C 32.779 25.73 30.069 26.376 27.203 27.06 C 19.1 28.991 8 31.638 8 43.45 C 8 47.252 10.102 48.58 33.65 48.58 Z " fill="rgb(255,255,255)"/><path d=" M 70.924 43.411 L 73.301 43.372 L 86.659 43.45 C 87.256 43.45 87.831 43.343 88.369 43.151 L 88.369 46.87 C 88.369 47.815 87.604 48.58 86.659 48.58 L 67.85 48.58 C 66.905 48.58 66.14 47.815 66.14 46.87 L 66.14 43.859 C 67.422 43.613 68.97 43.44 70.924 43.411 Z " fill="rgb(255,255,255)"/></g></g></g></g></svg>