<?xml version="1.0" encoding="UTF-8" standalone="no"?><!-- Generator: Gravit.io --><svg xmlns="http://www.w3.org/2000/svg" xmlns:xlink="http://www.w3.org/1999/xlink" style="isolation:isolate" viewBox="0 0 512 512" width="512pt" height="512pt"><defs><clipPath id="_clipPath_4b6lIrax6TsGbfxoyu0T1voGMS2eXZfx"><rect width="512" height="512"/></clipPath></defs><g clip-path="url(#_clipPath_4b6lIrax6TsGbfxoyu0T1voGMS2eXZfx)"><path d=" M 17.351 170.311 L 256.534 8.008 L 495.716 170.311 L 495.716 503.458 L 17.351 503.458 L 17.351 170.311 Z " fill="rgb(27,76,245)"/><path d=" M 273.618 19.601 L 256.534 8.008 L 17.351 170.311 L 17.351 503.458 L 51.52 503.458 L 51.52 170.311 L 273.618 19.601 Z " fill="rgb(23,46,182)"/><rect x="102.774" y="213.022" width="307.52" height="290.436" transform="matrix(1,0,0,1,0,0)" fill="rgb(116,117,123)"/><g><rect x="102.774" y="213.022" width="307.52" height="290.436" transform="matrix(1,0,0,1,0,0)" fill="rgb(116,117,123)"/></g><rect x="102.774" y="213.022" width="34.169" height="290.436" transform="matrix(1,0,0,1,0,0)" fill="rgb(96,98,104)"/><rect x="85.689" y="178.853" width="341.689" height="34.169" transform="matrix(1,0,0,1,0,0)" fill="rgb(215,216,217)"/><rect x="102.774" y="298.444" width="102.507" height="102.507" transform="matrix(1,0,0,1,0,0)" fill="rgb(253,221,133)"/><rect x="102.774" y="298.444" width="25.627" height="102.507" transform="matrix(1,0,0,1,0,0)" fill="rgb(253,208,66)"/><rect x="136.943" y="298.444" width="34.169" height="51.253" transform="matrix(1,0,0,1,0,0)" fill="rgb(225,165,39)"/><rect x="102.774" y="400.951" width="102.507" height="102.507" transform="matrix(1,0,0,1,0,0)" fill="rgb(253,221,133)"/><rect x="102.774" y="400.951" width="25.627" height="102.507" transform="matrix(1,0,0,1,0,0)" fill="rgb(253,208,66)"/><rect x="136.943" y="400.951" width="34.169" height="51.253" transform="matrix(1,0,0,1,0,0)" fill="rgb(225,165,39)"/><rect x="205.281" y="400.951" width="102.507" height="102.507" transform="matrix(1,0,0,1,0,0)" fill="rgb(253,221,133)"/><rect x="205.281" y="400.951" width="25.627" height="102.507" transform="matrix(1,0,0,1,0,0)" fill="rgb(253,208,66)"/><rect x="239.449" y="400.951" width="34.169" height="51.253" transform="matrix(1,0,0,1,0,0)" fill="rgb(225,165,39)"/><path d=" M 499.946 163.684 L 260.897 1.382 C 258.184 -0.461 254.686 -0.46 251.97 1.382 L 12.554 163.684 C 10.358 165.175 8.809 167.656 8.809 170.311 L 8.809 503.458 C 8.809 507.881 12.928 512 17.351 512 L 495.716 512 C 500.14 512 503.19 507.881 503.19 503.458 L 503.19 170.311 C 503.191 167.656 502.143 165.175 499.946 163.684 Z  M 93.164 205.548 L 93.164 187.396 L 418.837 187.396 L 418.837 205.548 L 93.164 205.548 L 93.164 205.548 Z  M 144.417 306.987 L 162.569 306.987 L 162.569 342.224 L 144.417 342.224 L 144.417 306.987 L 144.417 306.987 Z  M 136.943 358.24 L 171.112 358.24 C 175.535 358.24 178.586 354.121 178.586 349.698 L 178.586 306.987 L 196.738 306.987 L 196.738 393.477 L 171.111 393.477 L 136.942 393.477 L 110.248 393.477 L 110.248 306.987 L 128.4 306.987 L 128.4 349.698 C 128.4 354.12 132.52 358.24 136.943 358.24 Z  M 144.417 409.493 L 162.569 409.493 L 162.569 444.73 L 144.417 444.73 L 144.417 409.493 L 144.417 409.493 Z  M 110.248 409.493 L 128.4 409.493 L 128.4 452.204 C 128.4 456.627 132.519 460.746 136.942 460.746 L 171.111 460.746 C 175.534 460.746 178.585 456.627 178.585 452.204 L 178.585 409.493 L 196.737 409.493 L 196.737 495.983 L 110.247 495.983 L 110.247 409.493 L 110.248 409.493 Z  M 212.755 495.983 L 212.755 409.493 L 230.907 409.493 L 230.907 452.204 C 230.907 456.627 235.026 460.746 239.449 460.746 L 273.618 460.746 C 278.042 460.746 281.092 456.627 281.092 452.204 L 281.092 409.493 L 299.244 409.493 L 299.244 495.983 L 212.755 495.983 L 212.755 495.983 Z  M 246.924 409.493 L 265.076 409.493 L 265.076 444.73 L 246.924 444.73 L 246.924 409.493 L 246.924 409.493 Z  M 487.174 495.983 L 417.768 495.983 L 417.768 324.071 C 417.768 319.648 414.183 316.063 409.76 316.063 C 405.336 316.063 401.752 319.649 401.752 324.071 L 401.752 495.983 L 315.262 495.983 L 315.262 400.951 C 315.262 396.528 312.211 393.477 307.788 393.477 L 212.756 393.477 L 212.756 298.445 C 212.756 294.022 209.704 290.971 205.282 290.971 L 110.25 290.971 L 110.25 221.565 L 401.754 221.565 L 401.754 289.903 C 401.754 294.326 405.339 297.911 409.762 297.911 C 414.186 297.911 417.77 294.325 417.77 289.903 L 417.77 221.565 L 427.38 221.565 C 431.804 221.565 434.854 217.446 434.854 213.023 L 434.854 178.854 C 434.854 174.431 431.803 171.38 427.38 171.38 L 85.689 171.38 C 81.266 171.38 77.147 174.432 77.147 178.854 L 77.147 213.023 C 77.147 217.446 81.266 221.565 85.689 221.565 L 94.231 221.565 L 94.231 495.984 L 24.826 495.984 L 24.826 174.555 L 256 17.687 L 487.174 174.555 L 487.174 495.983 L 487.174 495.983 Z " fill="rgb(0,0,0)"/><path d=" M 214.357 76.88 C 214.357 81.303 217.943 84.888 222.365 84.888 L 290.703 84.888 C 295.127 84.888 298.711 81.302 298.711 76.88 C 298.711 72.458 295.126 68.872 290.703 68.872 L 222.365 68.872 C 217.942 68.872 214.357 72.457 214.357 76.88 Z " fill="rgb(0,0,0)"/><path d=" M 290.703 103.041 L 222.365 103.041 C 217.942 103.041 214.357 106.627 214.357 111.049 C 214.357 115.472 217.943 119.057 222.365 119.057 L 290.703 119.057 C 295.127 119.057 298.711 115.471 298.711 111.049 C 298.711 106.626 295.127 103.041 290.703 103.041 Z " fill="rgb(0,0,0)"/><path d=" M 290.703 137.21 L 222.365 137.21 C 217.942 137.21 214.357 140.796 214.357 145.218 C 214.357 149.64 217.943 153.226 222.365 153.226 L 290.703 153.226 C 295.127 153.226 298.711 149.64 298.711 145.218 C 298.711 140.796 295.127 137.21 290.703 137.21 Z " fill="rgb(0,0,0)"/><path d=" M 136.943 383.867 L 171.112 383.867 C 175.535 383.867 179.12 380.281 179.12 375.859 C 179.12 371.436 175.534 367.851 171.112 367.851 L 136.943 367.851 C 132.52 367.851 128.935 371.437 128.935 375.859 C 128.934 380.281 132.52 383.867 136.943 383.867 Z " fill="rgb(0,0,0)"/><path d=" M 171.112 470.357 L 136.943 470.357 C 132.52 470.357 128.935 473.943 128.935 478.365 C 128.935 482.788 132.521 486.373 136.943 486.373 L 171.112 486.373 C 175.535 486.373 179.12 482.787 179.12 478.365 C 179.12 473.942 175.534 470.357 171.112 470.357 Z " fill="rgb(0,0,0)"/><path d=" M 273.618 470.357 L 239.449 470.357 C 235.026 470.357 231.441 473.943 231.441 478.365 C 231.441 482.788 235.027 486.373 239.449 486.373 L 273.618 486.373 C 278.042 486.373 281.626 482.787 281.626 478.365 C 281.627 473.942 278.042 470.357 273.618 470.357 Z " fill="rgb(0,0,0)"/></g></svg>